<?xml version="1.0" encoding="UTF-8"?>
<svg xmlns="http://www.w3.org/2000/svg" xmlns:xlink="http://www.w3.org/1999/xlink" width="16px" height="16px" viewBox="0 0 16 16" version="1.1">
<g id="surface1">
<path style=" stroke:none;fill-rule:nonzero;fill:rgb(100%,100%,100%);fill-opacity:1;" d="M 13.332031 0 L 2.667969 0 C 1.195312 0.00390625 0.00390625 1.195312 0 2.667969 L 0 13.332031 C 0 14.800781 1.199219 16 2.667969 16 L 13.332031 16 C 14.800781 16 16 14.800781 16 13.332031 L 16 2.667969 C 16 1.199219 14.800781 0 13.332031 0 Z M 11.875 11.238281 C 11.742188 11.558594 11.53125 11.839844 11.261719 12.058594 C 10.980469 12.285156 10.625 12.472656 10.1875 12.605469 C 9.753906 12.742188 9.234375 12.808594 8.632812 12.808594 L 4.34375 12.808594 L 4.34375 3.476562 L 8.878906 3.476562 C 9.71875 3.476562 10.390625 3.664062 10.894531 4.050781 C 11.398438 4.4375 11.652344 5.011719 11.652344 5.789062 C 11.652344 6.257812 11.539062 6.664062 11.308594 6.996094 C 11.078125 7.328125 10.746094 7.585938 10.320312 7.765625 L 10.320312 7.796875 C 10.890625 7.917969 11.328125 8.1875 11.621094 8.605469 C 11.910156 9.027344 12.058594 9.558594 12.058594 10.199219 C 12.058594 10.558594 11.988281 10.898438 11.859375 11.21875 L 11.875 11.234375 Z M 10.023438 8.9375 C 9.75 8.6875 9.367188 8.566406 8.871094 8.566406 L 5.988281 8.566406 L 5.988281 11.476562 L 8.878906 11.476562 C 9.371094 11.476562 9.757812 11.347656 10.03125 11.089844 C 10.304688 10.832031 10.445312 10.46875 10.445312 9.996094 C 10.441406 9.535156 10.304688 9.179688 10.03125 8.9375 L 10.019531 8.9375 Z M 9.625 7.054688 C 9.886719 6.832031 10.019531 6.511719 10.019531 6.09375 C 10.019531 5.621094 9.902344 5.289062 9.664062 5.097656 C 9.429688 4.910156 9.089844 4.808594 8.644531 4.808594 L 5.980469 4.808594 L 5.980469 7.386719 L 8.644531 7.386719 C 9.035156 7.386719 9.367188 7.273438 9.621094 7.054688 Z M 9.625 7.054688 "/>
</g>
</svg>
