<?xml version="1.0" encoding="UTF-8"?>
<svg xmlns="http://www.w3.org/2000/svg" xmlns:xlink="http://www.w3.org/1999/xlink" width="16px" height="16px" viewBox="0 0 16 16" version="1.1">
<g id="surface1">
<path style="fill:none;stroke-width:2;stroke-linecap:round;stroke-linejoin:round;stroke:rgb(100%,100%,100%);stroke-opacity:1;stroke-miterlimit:4;" d="M 12 3 L 9 3 C 7.341797 3 6 4.341797 6 6 C 6 7.658203 7.341797 9 9 9 M 12 3 L 12 9 M 12 3 L 15 3 C 16.658203 3 18 4.341797 18 6 C 18 7.658203 16.658203 9 15 9 M 12 9 L 9 9 M 12 9 L 15 9 M 12 9 L 12 15 M 9 9 C 7.341797 9 6 10.341797 6 12 C 6 13.658203 7.341797 15 9 15 M 15 9 C 16.658203 9 18 10.341797 18 12 C 18 13.658203 16.658203 15 15 15 C 13.341797 15 12 13.658203 12 12 C 12 10.341797 13.341797 9 15 9 Z M 12 15 L 9 15 M 12 15 L 12 18 C 12 19.658203 10.658203 21 9 21 C 7.341797 21 6 19.658203 6 18 C 6 16.341797 7.341797 15 9 15 " transform="matrix(0.666667,0,0,0.666667,0,0)"/>
</g>
</svg>
