<?xml version="1.0" encoding="UTF-8"?>
<svg xmlns="http://www.w3.org/2000/svg" xmlns:xlink="http://www.w3.org/1999/xlink" width="16px" height="16px" viewBox="0 0 16 16" version="1.1">
<g id="surface1">
<path style=" stroke:none;fill-rule:nonzero;fill:rgb(100%,100%,100%);fill-opacity:1;" d="M 4.78125 13.769531 C 4.171875 13.289062 3.519531 12.828125 3.078125 12.183594 C 2.144531 11.042969 1.421875 9.71875 0.929688 8.332031 C 0.632812 7.429688 0.53125 6.460938 0.148438 5.59375 C -0.253906 4.960938 0.214844 4.273438 0.90625 4.074219 C 1.214844 4.015625 1.753906 3.722656 1.101562 3.929688 C 0.515625 4.359375 0.460938 3.542969 1.058594 3.488281 C 1.46875 3.433594 1.621094 3.101562 1.480469 2.796875 C 1.039062 2.511719 2.546875 2.195312 1.789062 1.769531 C 1 0.917969 2.894531 0.753906 2.425781 1.71875 C 2.316406 2.464844 3.75 1.585938 3.417969 2.441406 C 3.753906 2.855469 4.683594 2.535156 4.660156 3.113281 C 5.152344 3.148438 5.320312 3.5625 5.785156 3.59375 C 6.265625 3.8125 7.132812 3.980469 7.296875 4.523438 C 6.820312 4.898438 5.71875 3.746094 5.667969 4.785156 C 5.808594 6.328125 5.773438 7.914062 6.335938 9.378906 C 6.601562 10.265625 7.25 10.964844 7.832031 11.65625 C 8.390625 12.335938 9.148438 12.8125 9.917969 13.210938 C 10.59375 13.53125 11.320312 13.742188 12.058594 13.875 C 12.359375 13.648438 12.886719 12.796875 13.351562 13.15625 C 13.375 13.558594 12.425781 13.996094 13.308594 13.953125 C 13.824219 13.796875 14.183594 14.351562 14.609375 13.851562 C 15 14.316406 16.238281 13.554688 15.960938 14.503906 C 15.582031 14.746094 15.03125 14.601562 14.652344 14.933594 C 14.03125 14.625 13.535156 15.214844 12.84375 15.140625 C 12.078125 15.277344 11.296875 15.332031 10.519531 15.332031 C 9.246094 15.234375 7.945312 15.191406 6.730469 14.746094 C 6.046875 14.546875 5.382812 14.160156 4.78125 13.769531 Z M 5.859375 14.238281 C 6.523438 14.523438 7.175781 14.828125 7.90625 14.921875 C 9.066406 15.082031 10.265625 15.328125 11.429688 15.101562 C 10.902344 14.867188 10.359375 15.195312 9.832031 14.933594 C 9.203125 15.070312 8.527344 14.898438 7.886719 14.816406 C 7.160156 14.492188 6.375 14.269531 5.695312 13.847656 C 4.84375 13.535156 6.132812 14.246094 6.363281 14.304688 C 6.898438 14.605469 5.78125 14.148438 5.621094 14.023438 C 5.175781 13.773438 5.117188 13.824219 5.578125 14.078125 C 5.671875 14.132812 5.761719 14.191406 5.855469 14.234375 Z M 4.589844 13.339844 C 5.234375 13.578125 4.585938 12.882812 4.289062 12.925781 C 4.15625 12.699219 3.789062 12.554688 4.050781 12.429688 C 3.578125 12.59375 3.558594 11.8125 3.335938 11.921875 C 2.839844 11.765625 3.144531 11.210938 2.550781 10.871094 C 2.496094 10.507812 1.964844 10.199219 1.792969 9.65625 C 1.71875 9.378906 1.1875 8.578125 1.515625 9.320312 C 1.789062 10.035156 2.277344 10.648438 2.679688 11.257812 C 2.992188 11.839844 3.367188 12.449219 3.9375 12.8125 C 4.128906 12.996094 4.316406 13.28125 4.589844 13.339844 Z M 2.726562 11.292969 C 2.75 11.199219 2.84375 11.507812 2.726562 11.292969 Z M 5.363281 13.625 C 5.507812 13.5625 5.15625 13.546875 5.363281 13.625 Z M 5.714844 13.753906 C 5.675781 13.578125 5.554688 13.851562 5.714844 13.753906 Z M 6.152344 13.9375 C 6.363281 13.738281 5.832031 13.8125 6.152344 13.9375 Z M 6.90625 14.355469 C 7.03125 14.167969 6.5 14.285156 6.90625 14.355469 Z M 5.460938 13.347656 C 5.785156 13.136719 5.039062 13.347656 5.460938 13.347656 Z M 5.789062 13.511719 C 5.78125 13.402344 5.671875 13.5625 5.789062 13.511719 Z M 7.4375 14.539062 C 7.703125 14.707031 8.984375 14.90625 8.179688 14.609375 C 8.046875 14.636719 6.691406 14.226562 7.4375 14.539062 Z M 4.820312 12.503906 C 4.796875 12.394531 4.410156 12.382812 4.820312 12.503906 Z M 5.589844 12.953125 C 5.789062 12.8125 5.175781 12.84375 5.589844 12.953125 Z M 6.234375 13.347656 C 6.519531 13.238281 5.769531 13.238281 6.234375 13.347656 Z M 4.511719 12.164062 C 4.820312 12.402344 5.761719 12.195312 4.984375 12.023438 C 4.632812 11.835938 3.835938 11.707031 4.378906 12.136719 Z M 6.671875 13.484375 C 6.800781 13.261719 6.128906 13.355469 6.671875 13.484375 Z M 6.015625 12.960938 C 6.773438 13.175781 5.375 12.480469 5.828125 12.882812 L 5.925781 12.929688 L 6.011719 12.960938 Z M 7.328125 13.722656 C 8.050781 13.730469 6.679688 13.625 7.328125 13.722656 Z M 4.234375 11.75 C 4.207031 11.613281 4.054688 11.761719 4.234375 11.75 Z M 8.546875 14.40625 C 8.566406 14.164062 8.3125 14.585938 8.546875 14.40625 Z M 5.460938 12.5 C 5.417969 12.375 5.234375 12.496094 5.460938 12.5 Z M 4.300781 11.664062 C 4.714844 11.640625 3.734375 11.484375 4.300781 11.664062 Z M 2.929688 10.777344 C 2.875 10.578125 2.480469 10.421875 2.929688 10.777344 Z M 6.535156 13.066406 C 6.457031 12.980469 6.496094 13.085938 6.535156 13.066406 Z M 8.777344 14.441406 C 8.769531 14.3125 8.65625 14.492188 8.777344 14.441406 Z M 6.335938 12.863281 C 6.375 12.691406 5.980469 12.808594 6.335938 12.863281 Z M 4.664062 11.800781 C 4.96875 11.765625 4.171875 11.59375 4.664062 11.800781 Z M 7.492188 13.558594 C 7.96875 13.367188 7.023438 13.464844 7.492188 13.558594 Z M 6.019531 12.558594 C 6.570312 12.628906 5.363281 12.183594 5.898438 12.519531 Z M 7.9375 13.738281 C 8.453125 13.429688 8.285156 14.460938 8.8125 13.824219 C 9.332031 13.445312 8.363281 14.296875 9.003906 13.894531 C 9.46875 13.582031 10.15625 14.039062 10.589844 14.191406 C 10.902344 14.175781 11.203125 14.460938 11.523438 14.289062 C 12.140625 14.121094 10.320312 14.039062 10.796875 13.746094 C 10.234375 13.910156 9.816406 13.550781 9.542969 13.191406 C 8.910156 13.042969 8.179688 12.722656 7.863281 12.164062 C 7.734375 11.953125 8.050781 12.191406 7.753906 11.847656 C 7.371094 11.511719 7.183594 11.125 6.925781 10.714844 C 6.621094 10.550781 6.585938 10.074219 6.554688 10.699219 C 6.558594 10.304688 6.1875 10.039062 6.09375 10.148438 C 6.09375 9.765625 6.492188 9.957031 6.214844 9.675781 C 6.152344 9.28125 5.957031 8.871094 5.894531 8.425781 C 5.804688 8.210938 5.882812 7.75 5.582031 8.238281 C 5.46875 8.75 5.542969 7.605469 5.714844 7.984375 C 5.941406 7.597656 5.636719 7.644531 5.621094 7.699219 C 5.769531 7.371094 5.714844 6.910156 5.585938 7.085938 C 5.660156 6.742188 5.707031 5.820312 5.46875 5.984375 C 5.613281 5.621094 5.742188 4.335938 5.113281 4.824219 C 4.855469 4.828125 4.414062 4.917969 4.203125 5.023438 C 4.859375 5.382812 4.136719 5.152344 3.871094 5.097656 C 3.835938 5.429688 3.570312 5.285156 3.238281 5.289062 C 3.765625 5.355469 2.980469 5.828125 2.679688 5.644531 C 2.285156 5.832031 3.019531 6.304688 2.6875 6.449219 C 2.726562 6.667969 2.082031 6.371094 2.132812 6.875 C 1.75 6.714844 2.082031 7.476562 2.273438 7.21875 C 2.921875 7.394531 2.730469 7.796875 2.746094 8.175781 C 2.640625 8.398438 2.222656 7.652344 2.652344 7.6875 C 2.3125 7.136719 2.277344 7.488281 1.996094 7.746094 C 1.929688 7.765625 2.714844 8.109375 2.222656 8.28125 C 2.65625 8.347656 2.667969 8.726562 2.757812 8.96875 C 3.015625 9.238281 2.964844 8.667969 3.273438 8.992188 C 3.078125 8.703125 2.230469 8.175781 2.914062 8.34375 C 2.910156 8.050781 2.789062 7.816406 3 7.820312 C 3.207031 7.449219 2.78125 8.746094 3.25 8.269531 C 3.378906 8.214844 3.410156 7.894531 3.640625 8.300781 C 3.980469 8.632812 3.761719 8.871094 3.289062 8.570312 C 3.371094 8.855469 3.925781 8.960938 3.820312 9.410156 C 3.929688 9.808594 4.085938 9.664062 4.21875 9.640625 C 4.324219 10.023438 4.382812 9.742188 4.386719 9.558594 C 4.867188 9.660156 4.757812 9.945312 4.90625 10.144531 C 5.238281 10.292969 4.433594 9.128906 5 9.792969 C 5.601562 10.335938 5.226562 10.5625 4.6875 10.472656 C 5.027344 10.445312 5.136719 10.933594 5.5625 10.917969 C 5.953125 11.101562 6.214844 11.808594 5.546875 11.515625 C 5.3125 11.304688 4.492188 11.046875 5.164062 11.445312 C 5.78125 11.730469 6.273438 11.902344 6.871094 12.261719 C 7.296875 12.570312 7.484375 12.917969 7.644531 12.988281 C 7.285156 13.160156 6.5625 12.851562 7.101562 12.753906 C 6.765625 12.695312 6.386719 12.523438 6.707031 12.941406 C 6.980469 13.171875 7.675781 13.144531 7.800781 13.171875 C 7.695312 13.402344 7.511719 13.421875 7.804688 13.441406 C 7.480469 13.613281 7.90625 13.640625 7.9375 13.738281 Z M 7.273438 11.867188 C 7.078125 11.660156 7.027344 11.273438 7.238281 11.609375 C 7.347656 11.652344 7.589844 12.242188 7.273438 11.867188 Z M 9.433594 13.238281 C 9.558594 13.230469 9.4375 13.332031 9.433594 13.238281 Z M 6.964844 11.359375 C 6.957031 11.046875 7.035156 11.601562 6.964844 11.359375 Z M 6.75 11.070312 C 6.5 10.59375 7.0625 11.207031 6.75 11.070312 Z M 4.148438 9.277344 C 4.292969 9.238281 4.21875 9.527344 4.148438 9.277344 Z M 6.21875 10.398438 C 6.308594 10.0625 6.324219 10.679688 6.21875 10.398438 Z M 4.757812 9.382812 C 4.652344 9.195312 4.972656 9.554688 4.757812 9.382812 Z M 6.011719 9.785156 C 5.777344 9.257812 6.175781 9.496094 6.0625 9.871094 Z M 3.847656 8.339844 C 3.742188 8.167969 3.566406 7.660156 3.625 7.507812 C 3.675781 7.757812 4.160156 8.589844 3.863281 7.851562 C 3.53125 7.230469 4.253906 8.054688 4.328125 8.207031 C 4.363281 8.363281 4.125 8.164062 4.289062 8.527344 C 3.992188 8.117188 4.113281 8.753906 3.847656 8.339844 Z M 3.179688 7.878906 C 3.207031 7.480469 3.332031 8.15625 3.179688 7.878906 Z M 3.480469 7.984375 C 3.621094 7.679688 3.722656 8.40625 3.480469 7.984375 Z M 2.753906 7.425781 C 2.507812 7.175781 2.324219 6.949219 2.765625 7.269531 C 2.9375 7.277344 2.390625 6.753906 2.808594 7.105469 C 3.246094 7.183594 3.023438 7.824219 2.753906 7.425781 Z M 3.136719 7.414062 C 3.28125 7.269531 3.210938 7.554688 3.136719 7.414062 Z M 3.367188 7.488281 C 3.148438 7.078125 3.636719 7.660156 3.367188 7.488281 Z M 2.902344 7.042969 C 2.179688 6.402344 3.8125 7.382812 3.023438 7.164062 Z M 4.976562 8.25 C 4.664062 8.0625 4.894531 6.925781 5.003906 7.703125 C 5.308594 7.605469 4.984375 8.105469 5.210938 8.097656 C 5.175781 8.414062 5.074219 8.527344 4.980469 8.25 Z M 5.746094 8.703125 C 5.777344 8.363281 5.808594 8.9375 5.746094 8.703125 Z M 5.613281 8.570312 C 5.648438 8.425781 5.617188 8.742188 5.613281 8.570312 Z M 3.046875 6.832031 C 2.582031 6.191406 4.398438 7.480469 3.34375 6.996094 C 3.234375 6.96875 3.101562 6.957031 3.046875 6.832031 Z M 4.523438 7.617188 C 4.480469 7.078125 4.621094 7.707031 4.523438 7.617188 Z M 5.644531 8.335938 C 5.730469 8.027344 5.652344 8.539062 5.644531 8.335938 Z M 3.117188 6.589844 C 3.394531 6.53125 4.261719 7.074219 3.464844 6.742188 C 3.375 6.644531 3.1875 6.691406 3.117188 6.589844 Z M 5.492188 7.769531 C 5.519531 7.21875 5.65625 7.441406 5.492188 7.851562 Z M 3.324219 6.394531 C 3.4375 6.230469 3.023438 5.648438 3.382812 6.1875 C 3.539062 6.3125 3.832031 6.394531 3.570312 6.445312 C 3.980469 6.804688 3.472656 6.542969 3.324219 6.394531 Z M 5.375 7.597656 C 5.453125 6.96875 5.441406 7.96875 5.375 7.597656 Z M 3.089844 5.816406 C 3.175781 5.777344 3.132812 5.929688 3.089844 5.816406 Z M 3.621094 6.132812 C 3.761719 5.84375 3.875 6.457031 3.621094 6.132812 Z M 5.132812 6.972656 C 5.128906 6.863281 5.160156 7.132812 5.132812 6.972656 Z M 5.042969 6.78125 C 4.835938 6.261719 5.238281 7.050781 5.042969 6.78125 Z M 4.914062 6.441406 C 4.878906 6.226562 5.035156 6.707031 4.914062 6.441406 Z M 5.125 6.101562 C 4.980469 5.847656 5.304688 4.984375 5.34375 5.519531 C 5.191406 5.9375 5.296875 6.167969 5.402344 5.609375 C 5.597656 5.171875 5.363281 6.480469 5.125 6.101562 Z M 5.339844 4.816406 C 5.402344 4.742188 5.351562 4.910156 5.339844 4.816406 Z M 4.980469 11.894531 C 4.894531 11.820312 4.992188 11.941406 4.980469 11.894531 Z M 5.71875 12.265625 C 6.132812 12.371094 6.128906 12.203125 5.757812 12.152344 C 5.558594 11.964844 4.925781 11.769531 5.492188 12.128906 C 5.527344 12.222656 5.648438 12.222656 5.71875 12.265625 Z M 4.257812 11.296875 C 4.484375 11.464844 5.113281 11.777344 4.582031 11.359375 C 4.761719 11.152344 4.238281 11.042969 4.414062 10.902344 C 3.972656 10.632812 4.066406 10.65625 4.375 10.664062 C 3.84375 10.429688 4.449219 10.449219 4.421875 10.324219 C 4.21875 10.285156 3.40625 9.964844 3.882812 10.351562 C 3.402344 10.105469 3.769531 10.445312 3.625 10.410156 C 3.128906 10.273438 4.0625 10.785156 3.542969 10.660156 C 3.828125 10.882812 4.308594 11.234375 3.664062 10.898438 C 3.578125 11.019531 4.125 11.203125 4.257812 11.296875 Z M 5.03125 11.742188 C 5.972656 12.042969 4.570312 11.371094 5.03125 11.742188 Z M 8.992188 14.140625 C 9.007812 13.953125 8.863281 14.300781 8.992188 14.140625 Z M 9.402344 14.3125 C 9.617188 14.101562 9.410156 14.648438 9.761719 14.261719 C 9.765625 13.984375 9.75 13.820312 9.355469 14.15625 C 9.25 14.214844 9.199219 14.472656 9.402344 14.3125 Z M 2.9375 10.253906 C 2.871094 9.992188 2.472656 9.992188 2.9375 10.253906 Z M 3.375 10.539062 C 3.210938 10.269531 2.796875 10.296875 3.375 10.539062 Z M 5.847656 12.03125 C 6.089844 12.242188 6.957031 12.1875 6.140625 12.058594 C 6.019531 11.878906 5.371094 11.921875 5.847656 12.03125 Z M 9.246094 14.128906 C 9.617188 13.816406 8.886719 14.269531 9.246094 14.128906 Z M 10.019531 14.660156 C 10.019531 14.558594 9.859375 14.703125 10.019531 14.660156 Z M 10.019531 14.519531 C 10.429688 14.085938 9.621094 14.546875 10.019531 14.519531 Z M 1.871094 9.359375 C 1.519531 8.859375 1.652344 8.632812 1.3125 8.226562 C 1.25 7.910156 0.734375 7.203125 1.046875 7.953125 C 1.332031 8.394531 1.417969 9.074219 1.871094 9.359375 Z M 9.890625 14.382812 C 10.648438 13.890625 9.578125 14.167969 9.890625 14.382812 Z M 10.46875 14.609375 C 10.847656 14.28125 10.226562 14.539062 10.46875 14.609375 Z M 2.808594 9.699219 C 2.917969 9.539062 2.53125 9.679688 2.808594 9.699219 Z M 10.347656 14.453125 C 10.714844 14.214844 10.261719 14.253906 10.28125 14.472656 Z M 5.367188 11.3125 C 5.351562 11.152344 5.171875 11.328125 5.367188 11.3125 Z M 5.675781 11.492188 C 5.578125 11.292969 5.523438 11.523438 5.675781 11.492188 Z M 10.9375 14.613281 C 11.40625 14.273438 10.652344 14.546875 10.839844 14.675781 Z M 10.757812 14.527344 C 11.140625 14.207031 10.351562 14.667969 10.757812 14.527344 Z M 11.675781 15.136719 C 11.933594 14.964844 11.363281 15.082031 11.675781 15.136719 Z M 3.046875 9.585938 C 3.390625 9.660156 4.421875 10.433594 3.8125 9.636719 C 3.503906 9.546875 3.6875 8.78125 3.371094 8.917969 C 3.585938 9.273438 3.546875 9.425781 3.097656 9.203125 C 2.535156 8.925781 2.78125 9.335938 2.890625 9.449219 C 2.742188 9.484375 3.089844 9.582031 3.046875 9.585938 Z M 1.476562 8.34375 C 1.535156 8.089844 0.90625 6.9375 1.179688 7.769531 C 1.273438 7.941406 1.265625 8.269531 1.476562 8.34375 Z M 4.359375 10.121094 C 4.179688 9.972656 4.347656 10.101562 4.359375 10.121094 Z M 4.796875 10.222656 C 4.796875 9.953125 4.3125 10.113281 4.796875 10.222656 Z M 8.582031 12.613281 C 8.511719 12.425781 8.296875 12.605469 8.582031 12.613281 Z M 8.765625 12.742188 C 8.738281 12.640625 8.660156 12.765625 8.765625 12.742188 Z M 10.265625 13.691406 C 10.410156 13.582031 10.085938 13.675781 10.265625 13.691406 Z M 2.261719 8.542969 C 2.671875 8.382812 1.816406 8.429688 2.261719 8.542969 Z M 8.25 12.316406 C 8.246094 12.050781 7.988281 12.382812 8.25 12.316406 Z M 2.097656 8.164062 C 2.363281 8.074219 1.851562 8.105469 2.097656 8.164062 Z M 2.867188 8.539062 C 2.863281 8.449219 2.785156 8.570312 2.867188 8.539062 Z M 12.261719 14.296875 C 12.601562 14.226562 13.378906 14.46875 13.503906 14.207031 C 13.089844 14.195312 12.070312 13.914062 12.023438 14.273438 L 12.113281 14.289062 Z M 3.113281 8.597656 C 3.117188 8.328125 2.902344 8.589844 3.113281 8.597656 Z M 1.085938 7.191406 C 0.996094 6.675781 0.738281 7.113281 1.085938 7.191406 Z M 1.570312 7.316406 C 1.574219 7.148438 1.128906 7.164062 1.570312 7.316406 Z M 1.84375 7.449219 C 1.765625 7.386719 1.78125 7.53125 1.84375 7.449219 Z M 3.582031 8.5625 C 3.664062 8.488281 3.386719 8.507812 3.582031 8.5625 Z M 1.660156 7.144531 C 1.617188 6.753906 1.101562 7.085938 1.660156 7.144531 Z M 0.671875 6.503906 C 0.65625 6.320312 0.574219 6.570312 0.671875 6.503906 Z M 0.820312 6.390625 C 0.792969 6.175781 0.691406 6.417969 0.820312 6.390625 Z M 1.632812 6.875 C 1.976562 6.742188 1.003906 6.597656 1.5625 6.851562 Z M 12.519531 13.601562 C 12.742188 13.402344 12.242188 13.539062 12.519531 13.601562 Z M 13.835938 14.285156 C 13.925781 14.023438 13.613281 14.320312 13.835938 14.285156 Z M 1.714844 6.449219 C 1.753906 6.199219 1.441406 6.5 1.714844 6.449219 Z M 0.558594 5.675781 C 0.496094 5.320312 0.503906 4.691406 1.097656 4.90625 C 0.304688 5.0625 1.648438 5.890625 1.480469 5.238281 C 1.8125 5.253906 2.132812 5.039062 1.957031 5.363281 C 2.613281 5.289062 3.070312 4.71875 3.707031 4.800781 C 4.199219 4.734375 4.742188 4.683594 5.273438 4.484375 C 5.714844 4.453125 6.136719 3.980469 5.894531 3.703125 C 5.296875 3.652344 4.671875 3.726562 4.011719 3.859375 C 3.277344 4.011719 2.613281 4.300781 1.875 4.425781 C 1.152344 4.519531 2.019531 4.691406 1.8125 4.726562 C 1.4375 4.859375 2.261719 4.945312 1.765625 5.085938 C 1.457031 5.023438 1.136719 4.921875 1.269531 4.597656 C 0.578125 4.6875 -0.0273438 4.972656 0.515625 5.675781 Z M 2.21875 4.828125 C 2.382812 4.234375 3.085938 5.320312 2.484375 4.90625 C 2.414062 4.855469 2.296875 4.808594 2.21875 4.828125 Z M 2.253906 4.539062 C 2.484375 4.367188 2.375 4.636719 2.253906 4.539062 Z M 2.546875 4.542969 C 2.570312 4.269531 3.226562 4.691406 2.65625 4.644531 Z M 2.953125 4.382812 C 3.101562 4.207031 2.996094 4.535156 2.953125 4.382812 Z M 3.058594 4.3125 C 3.304688 4.015625 4.453125 4.125 3.613281 4.285156 C 3.386719 4.113281 3.214844 4.382812 3.058594 4.3125 Z M 4.558594 4.082031 C 4.519531 3.269531 5.304688 4.367188 4.558594 4.082031 Z M 4.984375 4.078125 C 5.140625 3.671875 5.589844 3.914062 5.058594 3.996094 C 5.066406 4.039062 5.039062 4.207031 4.984375 4.078125 Z M 1.546875 6.242188 C 2.011719 5.957031 1.054688 5.996094 1.546875 6.242188 Z M 1.890625 6.335938 C 2.054688 6.164062 1.539062 6.265625 1.890625 6.335938 Z M 0.878906 5.617188 C 1.144531 5.414062 0.5625 5.539062 0.878906 5.617188 Z M 14.613281 14.210938 C 14.621094 13.972656 14.410156 14.316406 14.613281 14.210938 Z M 13.21875 13.257812 C 13.257812 12.984375 13.039062 13.28125 13.21875 13.257812 Z M 14.996094 14.300781 C 15.371094 14.300781 16.125 14.1875 15.316406 14.1875 C 15.1875 14.207031 14.574219 14.203125 14.996094 14.300781 Z M 2.191406 6.167969 C 2.492188 6.148438 2.664062 5.839844 2.136719 5.855469 C 1.316406 5.769531 2.859375 6.136719 2.03125 6.03125 C 1.917969 6.105469 2.1875 6.191406 2.191406 6.171875 Z M 2.457031 6.304688 C 2.425781 6.109375 2.367188 6.40625 2.457031 6.304688 Z M 2.773438 5.464844 C 2.902344 5.304688 2.59375 5.421875 2.773438 5.464844 Z M 1.773438 3.792969 C 2.308594 3.613281 3.042969 3.40625 3.296875 3.882812 C 3.039062 3.574219 3.191406 3.269531 3.4375 3.722656 C 3.78125 4.179688 3.953125 3.511719 3.730469 3.359375 C 3.984375 3.675781 4.273438 3.824219 3.898438 3.378906 C 4.308594 2.890625 3.085938 3.441406 2.808594 3.4375 C 2.671875 3.496094 1.425781 3.753906 1.773438 3.792969 Z M 2.085938 3.191406 C 2.394531 2.960938 3.144531 3.328125 2.664062 2.960938 C 2.617188 2.921875 1.605469 3.242188 2.085938 3.191406 Z M 3.203125 3.238281 C 3.5625 3.246094 3.046875 2.757812 3.476562 2.980469 C 3.40625 2.75 2.976562 2.707031 2.769531 2.617188 C 2.652344 2.824219 3.007812 3.242188 3.203125 3.238281 Z M 2.28125 2.226562 C 2.40625 2.058594 2.066406 2.308594 2.28125 2.226562 Z M 2.738281 2.335938 C 3.316406 2.257812 2.59375 2.085938 2.621094 2.328125 Z M 1.886719 1.667969 C 1.480469 1.136719 2.652344 1.757812 2.238281 1.199219 C 1.890625 0.925781 1.558594 1.511719 1.886719 1.667969 Z M 7.105469 4.476562 C 7.289062 4.148438 6.335938 4.03125 6.980469 4.359375 C 7.039062 4.378906 7.023438 4.5 7.105469 4.476562 Z M 7.105469 4.476562 "/>
</g>
</svg>
