<?xml version="1.0" encoding="UTF-8"?>
<svg xmlns="http://www.w3.org/2000/svg" xmlns:xlink="http://www.w3.org/1999/xlink" width="16px" height="16px" viewBox="0 0 16 16" version="1.1">
<g id="surface1">
<path style=" stroke:none;fill-rule:nonzero;fill:rgb(100%,100%,100%);fill-opacity:1;" d="M 11.453125 6.34375 C 10.613281 2.636719 8.625 1.421875 8.410156 0.953125 C 8.175781 0.625 7.921875 0 7.921875 0 C 7.921875 0.0117188 7.921875 0.0195312 7.921875 0.03125 L 7.921875 0.0429688 L 7.917969 0.0429688 C 7.917969 0.0507812 7.917969 0.0585938 7.917969 0.0664062 L 7.917969 0.078125 L 7.914062 0.078125 C 7.914062 0.0859375 7.914062 0.0898438 7.914062 0.09375 L 7.914062 0.113281 L 7.910156 0.113281 C 7.910156 0.117188 7.910156 0.125 7.910156 0.128906 L 7.910156 0.144531 C 7.910156 0.148438 7.910156 0.152344 7.90625 0.15625 L 7.90625 0.171875 C 7.90625 0.175781 7.90625 0.183594 7.90625 0.191406 C 7.902344 0.203125 7.902344 0.214844 7.898438 0.226562 L 7.898438 0.230469 C 7.898438 0.234375 7.894531 0.238281 7.894531 0.238281 L 7.894531 0.265625 L 7.890625 0.265625 L 7.890625 0.277344 L 7.886719 0.277344 L 7.886719 0.292969 L 7.882812 0.292969 L 7.882812 0.316406 L 7.878906 0.316406 L 7.878906 0.324219 L 7.875 0.324219 L 7.875 0.335938 L 7.871094 0.335938 L 7.871094 0.347656 L 7.867188 0.347656 L 7.867188 0.363281 L 7.863281 0.363281 C 7.863281 0.367188 7.863281 0.367188 7.863281 0.367188 L 7.863281 0.375 C 7.859375 0.375 7.859375 0.375 7.859375 0.378906 L 7.859375 0.382812 C 7.859375 0.382812 7.859375 0.386719 7.859375 0.386719 C 7.855469 0.394531 7.851562 0.398438 7.851562 0.402344 C 7.851562 0.40625 7.847656 0.40625 7.847656 0.410156 L 7.847656 0.414062 L 7.84375 0.414062 L 7.84375 0.425781 L 7.839844 0.425781 L 7.839844 0.429688 L 7.835938 0.429688 L 7.835938 0.441406 L 7.832031 0.441406 L 7.832031 0.449219 L 7.828125 0.449219 L 7.828125 0.457031 L 7.824219 0.457031 L 7.824219 0.460938 L 7.820312 0.460938 L 7.820312 0.472656 L 7.816406 0.472656 L 7.816406 0.480469 L 7.8125 0.480469 L 7.8125 0.484375 L 7.808594 0.484375 L 7.808594 0.496094 L 7.804688 0.496094 L 7.804688 0.5 L 7.800781 0.5 L 7.800781 0.507812 L 7.796875 0.507812 L 7.796875 0.511719 L 7.792969 0.511719 L 7.792969 0.523438 L 7.789062 0.523438 L 7.789062 0.527344 L 7.785156 0.527344 L 7.785156 0.53125 L 7.78125 0.53125 L 7.78125 0.539062 L 7.777344 0.539062 L 7.777344 0.542969 L 7.773438 0.542969 L 7.773438 0.546875 L 7.769531 0.546875 L 7.769531 0.558594 L 7.765625 0.558594 C 7.765625 0.558594 7.765625 0.558594 7.765625 0.5625 C 7.765625 0.5625 7.761719 0.566406 7.761719 0.566406 C 7.757812 0.570312 7.757812 0.574219 7.753906 0.578125 L 7.753906 0.582031 C 7.753906 0.582031 7.75 0.585938 7.746094 0.585938 L 7.746094 0.59375 L 7.742188 0.59375 C 7.742188 0.597656 7.738281 0.597656 7.738281 0.597656 L 7.738281 0.601562 L 7.734375 0.601562 C 7.734375 0.605469 7.734375 0.605469 7.734375 0.605469 L 7.730469 0.605469 C 7.730469 0.609375 7.730469 0.609375 7.730469 0.609375 L 7.730469 0.613281 L 7.726562 0.613281 L 7.726562 0.617188 L 7.722656 0.617188 L 7.722656 0.625 L 7.71875 0.625 L 7.71875 0.621094 L 7.710938 0.621094 L 7.710938 0.625 L 7.707031 0.625 L 7.707031 0.632812 L 7.703125 0.632812 L 7.703125 0.636719 L 7.699219 0.636719 L 7.699219 0.648438 L 7.691406 0.648438 L 7.691406 0.652344 L 7.6875 0.652344 L 7.6875 0.65625 L 7.683594 0.65625 L 7.683594 0.660156 L 7.679688 0.660156 L 7.679688 0.667969 L 7.675781 0.667969 L 7.675781 0.671875 L 7.671875 0.671875 L 7.671875 0.675781 L 7.667969 0.675781 L 7.667969 0.683594 L 7.660156 0.683594 L 7.660156 0.691406 L 7.65625 0.691406 L 7.65625 0.695312 L 7.652344 0.695312 L 7.652344 0.699219 L 7.648438 0.699219 L 7.648438 0.707031 L 7.644531 0.707031 L 7.644531 0.710938 L 7.636719 0.710938 L 7.636719 0.714844 L 7.632812 0.714844 L 7.632812 0.722656 L 7.628906 0.722656 L 7.628906 0.726562 L 7.625 0.726562 L 7.625 0.730469 L 7.621094 0.730469 L 7.621094 0.734375 L 7.617188 0.734375 L 7.617188 0.738281 L 7.613281 0.738281 L 7.613281 0.746094 L 7.605469 0.746094 C 7.605469 0.75 7.605469 0.75 7.605469 0.75 L 7.601562 0.753906 C 7.601562 0.753906 7.601562 0.753906 7.597656 0.753906 L 7.597656 0.761719 L 7.59375 0.761719 L 7.59375 0.765625 L 7.589844 0.765625 L 7.589844 0.769531 L 7.585938 0.769531 L 7.585938 0.773438 L 7.582031 0.773438 C 7.578125 0.78125 7.578125 0.78125 7.574219 0.785156 C 7.570312 0.789062 7.566406 0.789062 7.566406 0.792969 C 7.558594 0.796875 7.546875 0.808594 7.539062 0.8125 C 7.535156 0.816406 7.527344 0.820312 7.523438 0.824219 C 7.511719 0.835938 7.503906 0.84375 7.492188 0.851562 C 7.476562 0.867188 7.460938 0.878906 7.441406 0.894531 C 7.402344 0.925781 7.363281 0.960938 7.316406 1 C 7.203125 1.097656 7.070312 1.226562 6.917969 1.378906 L 6.90625 1.390625 C 6 2.328125 4.570312 4.285156 4.421875 7.441406 C 4.40625 7.703125 4.410156 7.957031 4.425781 8.207031 L 4.425781 8.210938 C 4.496094 9.457031 4.886719 10.519531 5.375 11.382812 C 5.570312 11.726562 5.78125 12.039062 5.992188 12.320312 C 6.730469 13.289062 7.480469 13.863281 7.671875 14.003906 C 7.964844 14.6875 7.9375 15.855469 7.9375 15.855469 L 8.367188 16 C 8.367188 16 8.277344 14.867188 8.402344 14.320312 C 8.4375 14.148438 8.53125 14 8.632812 13.878906 C 8.703125 13.828125 8.914062 13.675781 9.164062 13.449219 C 9.175781 13.433594 9.183594 13.421875 9.195312 13.410156 C 10.207031 12.464844 12.101562 10.136719 11.453125 6.34375 Z M 11.453125 6.34375 "/>
</g>
</svg>
