<?xml version="1.0" encoding="UTF-8"?>
<svg xmlns="http://www.w3.org/2000/svg" xmlns:xlink="http://www.w3.org/1999/xlink" width="16px" height="16px" viewBox="0 0 16 16" version="1.1">
<g id="surface1">
<path style="fill-rule:evenodd;fill:rgb(100%,100%,100%);fill-opacity:1;stroke-width:1;stroke-linecap:butt;stroke-linejoin:miter;stroke:rgb(100%,100%,100%);stroke-opacity:1;stroke-miterlimit:4;" d="M 12 6.035156 C 9.333984 6.035156 7.669922 7.359375 7.001953 10.013672 C 7.998047 8.689453 9.169922 8.191406 10.5 8.519531 C 11.261719 8.712891 11.806641 9.257812 12.404297 9.867187 C 13.388672 10.857422 14.519531 12 16.998047 12 C 19.669922 12 21.333984 10.675781 22.001953 8.021484 C 21 9.351562 19.833984 9.84375 18.498047 9.515625 C 17.736328 9.328125 17.197266 8.777344 16.59375 8.167969 C 15.615234 7.177734 14.478516 6.035156 12 6.035156 Z M 7.001953 12 C 4.330078 12 2.666016 13.324219 1.998047 15.978516 C 3 14.648437 4.166016 14.15625 5.501953 14.484375 C 6.263672 14.671875 6.802734 15.222656 7.40625 15.832031 C 8.384766 16.816406 9.521484 17.964844 12 17.964844 C 14.666016 17.964844 16.335937 16.640625 17.003906 13.986328 C 16.001953 15.310547 14.835937 15.808594 13.5 15.480469 C 12.738281 15.287109 12.193359 14.742187 11.595703 14.132812 C 10.611328 13.142578 9.480469 12 7.001953 12 Z M 7.001953 12 " transform="matrix(0.666667,0,0,0.666667,0,0)"/>
</g>
</svg>
